<svg xmlns="http://www.w3.org/2000/svg" viewBox="0 0 15.35 15.53"><defs><style>.cls-1{fill:#00ab84;}.cls-2{fill:none;}</style></defs><g id="Layer_2" data-name="Layer 2"><g id="Layer_1-2" data-name="Layer 1"><g id="distance"><path id="distancep" class="cls-1" d="M15.23,8.08l0,.05-4,3.66a.59.59,0,0,1-.8,0,.48.48,0,0,1-.17-.37V8.23H5.11v3.19a.48.48,0,0,1-.17.37.59.59,0,0,1-.8,0l-4-3.66L.12,8.08a.48.48,0,0,1,.05-.69l4-3.66a.61.61,0,0,1,.8,0,.5.5,0,0,1,.17.37V7.19h5.14V4.1a.5.5,0,0,1,.17-.37.61.61,0,0,1,.8,0l4,3.66A.49.49,0,0,1,15.23,8.08Z"/><rect class="cls-2" width="15.35" height="15.53"/></g></g></g></svg>