<svg xmlns="http://www.w3.org/2000/svg" viewBox="0 0 15.35 15.7"><defs><style>.cls-1{fill:#02ac85;}.cls-2{fill:none;}</style></defs><g id="Layer_2" data-name="Layer 2"><g id="Layer_1-2" data-name="Layer 1"><g id="downdist"><path class="cls-1" d="M14.12,5.76H1.23a.85.85,0,0,0-.64.33,1.22,1.22,0,0,0-.28.78,1.2,1.2,0,0,0,.28.77L7,15.37a.8.8,0,0,0,1.29,0l6.44-7.73A1.2,1.2,0,0,0,15,6.87a1.22,1.22,0,0,0-.28-.78A.85.85,0,0,0,14.12,5.76Z"/><rect class="cls-1" x="4.32" width="6.72" height="1.78"/><rect class="cls-2" y="0.09" width="15.35" height="15.53"/></g></g></g></svg>