<svg xmlns="http://www.w3.org/2000/svg" viewBox="0 0 15.35 15.53"><defs><style>.cls-1{fill:#02ac85!important;}.cls-2{fill:none;}</style></defs><g id="Layer_2" data-name="Layer 2"><g id="Layer_1-2" data-name="Layer 1"><g id="updist"><polygon class="cls-1" points="10.56 11.63 10.56 13.18 8.4 13.18 8.4 15.53 6.85 15.53 6.85 13.18 4.69 13.18 4.69 11.63 6.85 11.63 6.85 9.27 8.4 9.27 8.4 11.63 10.56 11.63"/><path class="cls-1" d="M2.19,7.65h11a.73.73,0,0,0,.55-.25.85.85,0,0,0,.23-.6.82.82,0,0,0-.23-.6L8.22.25A.71.71,0,0,0,7.67,0a.73.73,0,0,0-.55.25l-5.48,6a.84.84,0,0,0-.23.6.85.85,0,0,0,.23.6A.73.73,0,0,0,2.19,7.65Z"/><rect class="cls-2" width="15.35" height="15.53"/></g></g></g></svg>